<svg xmlns="http://www.w3.org/2000/svg" viewBox="0 0 240 120" role="img" aria-label="NAJAH — All you need in one place">
  <g transform="translate(0,0)">
    <path d="M48 8 C 30 8 18 22 18 42 V 70 C 18 82 28 90 48 90 C 68 90 78 82 78 70 V 42 C 78 22 66 8 48 8 Z" fill="#003449"/>
    <path d="M22 14 L 30 4 L 32 16 Z" fill="#003449"/>
    <path d="M74 14 L 66 4 L 64 16 Z" fill="#003449"/>
    <circle cx="34" cy="34" r="11" fill="#FFFFFF"/>
    <circle cx="62" cy="34" r="11" fill="#FFFFFF"/>
    <circle cx="34" cy="34" r="7" fill="#057A8D"/>
    <circle cx="62" cy="34" r="7" fill="#057A8D"/>
    <circle cx="36" cy="32" r="2" fill="#FFFFFF"/>
    <circle cx="64" cy="32" r="2" fill="#FFFFFF"/>
    <path d="M48 42 L 52 47 L 48 52 L 44 47 Z" fill="#ED2D30"/>
    <path d="M28 60 L 28 76 L 47 78 L 47 62 Z" fill="#FFFFFF"/>
    <path d="M68 60 L 68 76 L 49 78 L 49 62 Z" fill="#FFFFFF"/>
    <line x1="48" y1="62" x2="48" y2="78" stroke="#003449" stroke-width="1"/>
    <ellipse cx="40" cy="91" rx="5" ry="2" fill="#003449"/>
    <ellipse cx="56" cy="91" rx="5" ry="2" fill="#003449"/>
  </g>
  <text x="92" y="62" font-family="Mulish, system-ui, sans-serif" font-weight="900" font-size="48" letter-spacing="2" fill="#ED2D30">NAJAH</text>
  <text x="92" y="92" font-family="Mulish, system-ui, sans-serif" font-weight="500" font-size="12" letter-spacing="3" fill="#003449">ALL YOU NEED IN ONE PLACE</text>
</svg>